<?xml version="1.0" standalone="no"?><!DOCTYPE svg PUBLIC "-//W3C//DTD SVG 1.1//EN" "http://www.w3.org/Graphics/SVG/1.1/DTD/svg11.dtd"><svg class="icon" width="200px" height="200.00px" viewBox="0 0 1024 1024" version="1.1" xmlns="http://www.w3.org/2000/svg"><path fill="#333333" d="M608 768c-17.696 0-32-14.304-32-32V384c0-17.696 14.304-32 32-32s32 14.304 32 32v352c0 17.696-14.304 32-32 32zM416 768c-17.696 0-32-14.304-32-32V384c0-17.696 14.304-32 32-32s32 14.304 32 32v352c0 17.696-14.304 32-32 32zM928 224H768v-64c0-52.928-42.72-96-95.264-96H352c-52.928 0-96 43.072-96 96v64H96c-17.696 0-32 14.304-32 32s14.304 32 32 32h832c17.696 0 32-14.304 32-32s-14.304-32-32-32z m-608-64c0-17.632 14.368-32 32-32h320.736C690.272 128 704 142.048 704 160v64H320v-64zM736.128 960H288.064c-52.928 0-96-43.072-96-96V383.52c0-17.664 14.336-32 32-32s32 14.336 32 32V864c0 17.664 14.368 32 32 32h448.064c17.664 0 32-14.336 32-32V384.832c0-17.664 14.304-32 32-32s32 14.336 32 32V864c0 52.928-43.072 96-96 96z" /></svg>